<svg xmlns="http://www.w3.org/2000/svg" xmlns:xlink="http://www.w3.org/1999/xlink" width="1920" zoomAndPan="magnify" viewBox="0 0 1440 809.999993" height="1080" preserveAspectRatio="xMidYMid meet" version="1.0"><defs><clipPath id="03fc589f17"><path d="M 604.5 289.5 L 835.5 289.5 L 835.5 520.5 L 604.5 520.5 Z M 604.5 289.5 " clip-rule="nonzero"/></clipPath></defs><g clip-path="url(#03fc589f17)"><path fill="#43c467" d="M 720 520.5 C 718.109375 520.5 716.21875 520.453125 714.332031 520.359375 C 712.445312 520.269531 710.558594 520.128906 708.679688 519.945312 C 706.796875 519.757812 704.921875 519.527344 703.050781 519.25 C 701.183594 518.972656 699.320312 518.648438 697.46875 518.28125 C 695.613281 517.910156 693.769531 517.496094 691.9375 517.039062 C 690.101562 516.578125 688.28125 516.074219 686.472656 515.527344 C 684.664062 514.976562 682.867188 514.386719 681.089844 513.75 C 679.308594 513.113281 677.546875 512.429688 675.800781 511.707031 C 674.054688 510.984375 672.324219 510.21875 670.617188 509.410156 C 668.910156 508.601562 667.21875 507.753906 665.554688 506.863281 C 663.886719 505.972656 662.242188 505.039062 660.621094 504.066406 C 659 503.097656 657.402344 502.085938 655.832031 501.035156 C 654.261719 499.984375 652.714844 498.894531 651.195312 497.769531 C 649.679688 496.644531 648.1875 495.480469 646.726562 494.28125 C 645.265625 493.082031 643.835938 491.847656 642.433594 490.578125 C 641.035156 489.308594 639.664062 488.007812 638.328125 486.671875 C 636.992188 485.335938 635.691406 483.964844 634.421875 482.566406 C 633.152344 481.164062 631.917969 479.734375 630.71875 478.273438 C 629.519531 476.8125 628.355469 475.320312 627.230469 473.804688 C 626.101562 472.285156 625.015625 470.738281 623.964844 469.167969 C 622.914062 467.597656 621.902344 466 620.933594 464.378906 C 619.960938 462.757812 619.027344 461.113281 618.136719 459.445312 C 617.246094 457.777344 616.398438 456.089844 615.589844 454.382812 C 614.78125 452.675781 614.015625 450.945312 613.292969 449.199219 C 612.570312 447.453125 611.886719 445.691406 611.25 443.910156 C 610.613281 442.132812 610.023438 440.335938 609.472656 438.527344 C 608.925781 436.71875 608.421875 434.898438 607.960938 433.0625 C 607.503906 431.230469 607.089844 429.386719 606.71875 427.53125 C 606.351562 425.679688 606.027344 423.816406 605.75 421.949219 C 605.472656 420.078125 605.242188 418.203125 605.054688 416.320312 C 604.871094 414.441406 604.730469 412.554688 604.640625 410.667969 C 604.546875 408.78125 604.5 406.890625 604.5 405 C 604.5 403.109375 604.546875 401.21875 604.640625 399.332031 C 604.730469 397.445312 604.871094 395.558594 605.054688 393.679688 C 605.242188 391.796875 605.472656 389.921875 605.75 388.050781 C 606.027344 386.183594 606.351562 384.320312 606.71875 382.46875 C 607.089844 380.613281 607.503906 378.769531 607.960938 376.9375 C 608.421875 375.101562 608.925781 373.28125 609.472656 371.472656 C 610.023438 369.664062 610.613281 367.867188 611.25 366.089844 C 611.886719 364.308594 612.570312 362.546875 613.292969 360.800781 C 614.015625 359.054688 614.78125 357.324219 615.589844 355.617188 C 616.398438 353.910156 617.246094 352.222656 618.136719 350.554688 C 619.027344 348.886719 619.960938 347.242188 620.933594 345.621094 C 621.902344 344 622.914062 342.402344 623.964844 340.832031 C 625.015625 339.261719 626.101562 337.714844 627.230469 336.195312 C 628.355469 334.679688 629.519531 333.1875 630.71875 331.726562 C 631.917969 330.265625 633.152344 328.835938 634.421875 327.433594 C 635.691406 326.035156 636.992188 324.664062 638.328125 323.328125 C 639.664062 321.992188 641.035156 320.691406 642.433594 319.421875 C 643.835938 318.152344 645.265625 316.917969 646.726562 315.71875 C 648.1875 314.519531 649.679688 313.355469 651.195312 312.230469 C 652.714844 311.105469 654.261719 310.015625 655.832031 308.964844 C 657.402344 307.914062 659 306.902344 660.621094 305.933594 C 662.242188 304.960938 663.886719 304.027344 665.554688 303.136719 C 667.21875 302.246094 668.910156 301.398438 670.617188 300.589844 C 672.324219 299.78125 674.054688 299.015625 675.800781 298.292969 C 677.546875 297.570312 679.308594 296.886719 681.089844 296.25 C 682.867188 295.613281 684.664062 295.023438 686.472656 294.472656 C 688.28125 293.925781 690.101562 293.421875 691.9375 292.960938 C 693.769531 292.503906 695.613281 292.089844 697.46875 291.71875 C 699.320312 291.351562 701.183594 291.027344 703.050781 290.75 C 704.921875 290.472656 706.796875 290.242188 708.679688 290.054688 C 710.558594 289.871094 712.445312 289.730469 714.332031 289.640625 C 716.21875 289.546875 718.109375 289.5 720 289.5 C 721.890625 289.5 723.78125 289.546875 725.667969 289.640625 C 727.554688 289.730469 729.441406 289.871094 731.320312 290.054688 C 733.203125 290.242188 735.078125 290.472656 736.949219 290.75 C 738.816406 291.027344 740.679688 291.351562 742.53125 291.71875 C 744.386719 292.089844 746.230469 292.503906 748.0625 292.960938 C 749.898438 293.421875 751.71875 293.925781 753.527344 294.472656 C 755.335938 295.023438 757.132812 295.613281 758.910156 296.25 C 760.691406 296.886719 762.453125 297.570312 764.199219 298.292969 C 765.945312 299.015625 767.671875 299.78125 769.382812 300.589844 C 771.089844 301.398438 772.777344 302.246094 774.445312 303.136719 C 776.113281 304.027344 777.757812 304.960938 779.378906 305.933594 C 781 306.902344 782.597656 307.914062 784.167969 308.964844 C 785.738281 310.015625 787.285156 311.105469 788.804688 312.230469 C 790.320312 313.355469 791.8125 314.519531 793.273438 315.71875 C 794.734375 316.917969 796.164062 318.152344 797.566406 319.421875 C 798.964844 320.691406 800.335938 321.992188 801.671875 323.328125 C 803.007812 324.664062 804.308594 326.035156 805.578125 327.433594 C 806.847656 328.835938 808.082031 330.265625 809.28125 331.726562 C 810.480469 333.1875 811.644531 334.679688 812.769531 336.195312 C 813.894531 337.714844 814.984375 339.261719 816.035156 340.832031 C 817.085938 342.402344 818.097656 344 819.066406 345.621094 C 820.039062 347.242188 820.972656 348.886719 821.863281 350.554688 C 822.753906 352.222656 823.601562 353.910156 824.410156 355.617188 C 825.21875 357.324219 825.984375 359.054688 826.707031 360.800781 C 827.429688 362.546875 828.113281 364.308594 828.75 366.089844 C 829.386719 367.867188 829.976562 369.664062 830.527344 371.472656 C 831.074219 373.28125 831.578125 375.101562 832.039062 376.9375 C 832.496094 378.769531 832.910156 380.613281 833.28125 382.46875 C 833.648438 384.320312 833.972656 386.183594 834.25 388.050781 C 834.527344 389.921875 834.757812 391.796875 834.945312 393.679688 C 835.128906 395.558594 835.269531 397.445312 835.359375 399.332031 C 835.453125 401.21875 835.5 403.109375 835.5 405 C 835.496094 406.890625 835.449219 408.777344 835.355469 410.664062 C 835.257812 412.550781 835.117188 414.4375 834.933594 416.316406 C 834.746094 418.195312 834.511719 420.070312 834.234375 421.941406 C 833.953125 423.808594 833.628906 425.671875 833.257812 427.523438 C 832.886719 429.375 832.472656 431.21875 832.011719 433.050781 C 831.550781 434.886719 831.046875 436.707031 830.496094 438.511719 C 829.945312 440.320312 829.351562 442.113281 828.714844 443.894531 C 828.078125 445.671875 827.398438 447.433594 826.671875 449.179688 C 825.949219 450.925781 825.183594 452.652344 824.371094 454.359375 C 823.5625 456.066406 822.714844 457.753906 821.824219 459.417969 C 820.929688 461.085938 820 462.730469 819.027344 464.351562 C 818.054688 465.96875 817.042969 467.566406 815.992188 469.136719 C 814.945312 470.707031 813.855469 472.25 812.730469 473.769531 C 811.601562 475.285156 810.441406 476.777344 809.242188 478.238281 C 808.042969 479.695312 806.808594 481.128906 805.539062 482.527344 C 804.269531 483.925781 802.96875 485.296875 801.632812 486.632812 C 800.296875 487.96875 798.925781 489.269531 797.527344 490.539062 C 796.128906 491.808594 794.695312 493.042969 793.238281 494.242188 C 791.777344 495.441406 790.285156 496.601562 788.769531 497.730469 C 787.25 498.855469 785.707031 499.945312 784.136719 500.992188 C 782.566406 502.042969 780.96875 503.054688 779.351562 504.027344 C 777.730469 505 776.085938 505.929688 774.417969 506.824219 C 772.753906 507.714844 771.066406 508.5625 769.359375 509.371094 C 767.652344 510.183594 765.925781 510.949219 764.179688 511.671875 C 762.433594 512.398438 760.671875 513.078125 758.894531 513.714844 C 757.113281 514.351562 755.320312 514.945312 753.511719 515.496094 C 751.703125 516.046875 749.886719 516.550781 748.050781 517.011719 C 746.21875 517.472656 744.375 517.886719 742.523438 518.257812 C 740.671875 518.628906 738.808594 518.953125 736.941406 519.234375 C 735.070312 519.511719 733.195312 519.746094 731.316406 519.933594 C 729.4375 520.117188 727.550781 520.261719 725.664062 520.355469 C 723.777344 520.449219 721.890625 520.496094 720 520.5 Z M 720 301.65625 C 718.308594 301.65625 716.617188 301.699219 714.929688 301.78125 C 713.238281 301.867188 711.554688 301.988281 709.871094 302.15625 C 708.1875 302.320312 706.507812 302.527344 704.835938 302.777344 C 703.164062 303.023438 701.496094 303.3125 699.839844 303.644531 C 698.179688 303.972656 696.53125 304.34375 694.890625 304.753906 C 693.25 305.164062 691.621094 305.617188 690 306.109375 C 688.382812 306.597656 686.777344 307.128906 685.183594 307.699219 C 683.59375 308.269531 682.015625 308.878906 680.453125 309.523438 C 678.890625 310.171875 677.34375 310.855469 675.816406 311.578125 C 674.285156 312.304688 672.777344 313.0625 671.285156 313.859375 C 669.792969 314.65625 668.320312 315.492188 666.871094 316.359375 C 665.421875 317.230469 663.992188 318.132812 662.585938 319.074219 C 661.179688 320.015625 659.796875 320.988281 658.4375 321.996094 C 657.082031 323.003906 655.746094 324.042969 654.441406 325.117188 C 653.132812 326.1875 651.851562 327.292969 650.601562 328.429688 C 649.347656 329.5625 648.121094 330.730469 646.925781 331.925781 C 645.730469 333.121094 644.5625 334.347656 643.429688 335.601562 C 642.292969 336.851562 641.1875 338.132812 640.117188 339.441406 C 639.042969 340.746094 638.003906 342.082031 636.996094 343.4375 C 635.988281 344.796875 635.015625 346.179688 634.074219 347.585938 C 633.132812 348.992188 632.230469 350.421875 631.359375 351.871094 C 630.492188 353.320312 629.65625 354.792969 628.859375 356.285156 C 628.0625 357.777344 627.304688 359.285156 626.578125 360.816406 C 625.855469 362.34375 625.171875 363.890625 624.523438 365.453125 C 623.878906 367.015625 623.269531 368.59375 622.699219 370.183594 C 622.128906 371.777344 621.597656 373.382812 621.109375 375 C 620.617188 376.621094 620.164062 378.25 619.753906 379.890625 C 619.34375 381.53125 618.972656 383.179688 618.644531 384.839844 C 618.3125 386.496094 618.023438 388.164062 617.777344 389.835938 C 617.527344 391.507812 617.320312 393.1875 617.15625 394.871094 C 616.988281 396.554688 616.867188 398.238281 616.78125 399.929688 C 616.699219 401.617188 616.65625 403.308594 616.65625 405 C 616.65625 406.691406 616.699219 408.382812 616.78125 410.070312 C 616.867188 411.761719 616.988281 413.445312 617.15625 415.128906 C 617.320312 416.8125 617.527344 418.492188 617.777344 420.164062 C 618.023438 421.835938 618.3125 423.503906 618.644531 425.160156 C 618.972656 426.820312 619.34375 428.46875 619.753906 430.109375 C 620.164062 431.75 620.617188 433.378906 621.109375 435 C 621.597656 436.617188 622.128906 438.222656 622.699219 439.816406 C 623.269531 441.40625 623.878906 442.984375 624.523438 444.546875 C 625.171875 446.109375 625.855469 447.65625 626.578125 449.183594 C 627.304688 450.714844 628.0625 452.222656 628.859375 453.714844 C 629.65625 455.207031 630.492188 456.679688 631.359375 458.128906 C 632.230469 459.578125 633.132812 461.007812 634.074219 462.414062 C 635.015625 463.820312 635.988281 465.203125 636.996094 466.5625 C 638.003906 467.917969 639.042969 469.253906 640.117188 470.558594 C 641.1875 471.867188 642.292969 473.148438 643.429688 474.398438 C 644.5625 475.652344 645.730469 476.878906 646.925781 478.074219 C 648.121094 479.269531 649.347656 480.4375 650.601562 481.570312 C 651.851562 482.707031 653.132812 483.8125 654.441406 484.882812 C 655.746094 485.957031 657.082031 486.996094 658.4375 488.003906 C 659.796875 489.011719 661.179688 489.984375 662.585938 490.925781 C 663.992188 491.867188 665.421875 492.769531 666.871094 493.640625 C 668.320312 494.507812 669.792969 495.34375 671.285156 496.140625 C 672.777344 496.9375 674.285156 497.695312 675.816406 498.421875 C 677.34375 499.144531 678.890625 499.828125 680.453125 500.476562 C 682.015625 501.121094 683.59375 501.730469 685.183594 502.300781 C 686.777344 502.871094 688.382812 503.402344 690 503.890625 C 691.621094 504.382812 693.25 504.835938 694.890625 505.246094 C 696.53125 505.65625 698.179688 506.027344 699.839844 506.355469 C 701.496094 506.6875 703.164062 506.976562 704.835938 507.222656 C 706.507812 507.472656 708.1875 507.679688 709.871094 507.84375 C 711.554688 508.011719 713.238281 508.132812 714.929688 508.21875 C 716.617188 508.300781 718.308594 508.34375 720 508.34375 C 721.691406 508.34375 723.382812 508.300781 725.070312 508.21875 C 726.761719 508.132812 728.445312 508.011719 730.128906 507.84375 C 731.8125 507.679688 733.492188 507.472656 735.164062 507.222656 C 736.835938 506.976562 738.503906 506.6875 740.160156 506.355469 C 741.820312 506.027344 743.46875 505.65625 745.109375 505.246094 C 746.75 504.835938 748.378906 504.382812 750 503.890625 C 751.617188 503.402344 753.222656 502.871094 754.816406 502.300781 C 756.40625 501.730469 757.984375 501.121094 759.546875 500.476562 C 761.109375 499.828125 762.65625 499.144531 764.183594 498.421875 C 765.714844 497.695312 767.222656 496.9375 768.714844 496.140625 C 770.207031 495.34375 771.679688 494.507812 773.128906 493.640625 C 774.578125 492.769531 776.007812 491.867188 777.414062 490.925781 C 778.820312 489.984375 780.203125 489.011719 781.5625 488.003906 C 782.917969 486.996094 784.253906 485.957031 785.558594 484.882812 C 786.867188 483.8125 788.148438 482.707031 789.398438 481.570312 C 790.652344 480.4375 791.878906 479.269531 793.074219 478.074219 C 794.269531 476.878906 795.4375 475.652344 796.570312 474.398438 C 797.707031 473.148438 798.8125 471.867188 799.882812 470.558594 C 800.957031 469.253906 801.996094 467.917969 803.003906 466.5625 C 804.011719 465.203125 804.984375 463.820312 805.925781 462.414062 C 806.867188 461.007812 807.769531 459.578125 808.640625 458.128906 C 809.507812 456.679688 810.34375 455.207031 811.140625 453.714844 C 811.9375 452.222656 812.695312 450.714844 813.421875 449.183594 C 814.144531 447.65625 814.828125 446.109375 815.476562 444.546875 C 816.121094 442.984375 816.730469 441.40625 817.300781 439.816406 C 817.871094 438.222656 818.402344 436.617188 818.890625 435 C 819.382812 433.378906 819.835938 431.75 820.246094 430.109375 C 820.65625 428.46875 821.027344 426.820312 821.355469 425.160156 C 821.6875 423.503906 821.976562 421.835938 822.222656 420.164062 C 822.472656 418.492188 822.679688 416.8125 822.84375 415.128906 C 823.011719 413.445312 823.132812 411.761719 823.21875 410.070312 C 823.300781 408.382812 823.34375 406.691406 823.34375 405 C 823.339844 403.308594 823.296875 401.621094 823.210938 399.929688 C 823.128906 398.242188 823 396.558594 822.832031 394.875 C 822.664062 393.191406 822.457031 391.515625 822.207031 389.84375 C 821.957031 388.171875 821.667969 386.503906 821.335938 384.847656 C 821.003906 383.1875 820.632812 381.539062 820.222656 379.902344 C 819.808594 378.261719 819.355469 376.632812 818.863281 375.015625 C 818.371094 373.398438 817.839844 371.792969 817.269531 370.203125 C 816.699219 368.609375 816.089844 367.03125 815.441406 365.472656 C 814.796875 363.910156 814.109375 362.363281 813.386719 360.835938 C 812.664062 359.308594 811.902344 357.800781 811.105469 356.308594 C 810.304688 354.816406 809.472656 353.347656 808.601562 351.898438 C 807.734375 350.449219 806.828125 349.019531 805.886719 347.613281 C 804.949219 346.210938 803.976562 344.828125 802.96875 343.46875 C 801.960938 342.113281 800.921875 340.78125 799.847656 339.472656 C 798.773438 338.167969 797.671875 336.886719 796.535156 335.632812 C 795.398438 334.382812 794.234375 333.15625 793.039062 331.960938 C 791.84375 330.765625 790.617188 329.601562 789.367188 328.464844 C 788.113281 327.328125 786.832031 326.226562 785.527344 325.152344 C 784.21875 324.078125 782.886719 323.039062 781.53125 322.03125 C 780.171875 321.023438 778.789062 320.050781 777.386719 319.113281 C 775.980469 318.171875 774.550781 317.265625 773.101562 316.398438 C 771.652344 315.527344 770.183594 314.695312 768.691406 313.894531 C 767.199219 313.097656 765.691406 312.335938 764.164062 311.613281 C 762.636719 310.890625 761.089844 310.203125 759.527344 309.558594 C 757.964844 308.910156 756.390625 308.300781 754.796875 307.730469 C 753.207031 307.160156 751.601562 306.628906 749.984375 306.136719 C 748.367188 305.644531 746.738281 305.191406 745.097656 304.777344 C 743.460938 304.367188 741.8125 303.996094 740.152344 303.664062 C 738.496094 303.332031 736.828125 303.042969 735.15625 302.792969 C 733.484375 302.542969 731.808594 302.332031 730.125 302.167969 C 728.441406 302 726.757812 301.871094 725.070312 301.789062 C 723.378906 301.703125 721.691406 301.660156 720 301.65625 Z M 696.898438 456.378906 C 696.09375 456.378906 695.316406 456.222656 694.570312 455.914062 C 693.824219 455.605469 693.167969 455.164062 692.597656 454.59375 L 653.433594 415.417969 C 653.144531 415.140625 652.886719 414.832031 652.65625 414.5 C 652.425781 414.167969 652.234375 413.816406 652.074219 413.445312 C 651.914062 413.074219 651.792969 412.691406 651.710938 412.296875 C 651.625 411.902344 651.582031 411.503906 651.578125 411.101562 C 651.578125 410.695312 651.613281 410.296875 651.6875 409.898438 C 651.765625 409.503906 651.878906 409.117188 652.03125 408.746094 C 652.183594 408.371094 652.375 408.015625 652.597656 407.679688 C 652.820312 407.34375 653.074219 407.035156 653.359375 406.75 C 653.644531 406.464844 653.957031 406.207031 654.292969 405.984375 C 654.628906 405.761719 654.984375 405.574219 655.355469 405.421875 C 655.730469 405.269531 656.113281 405.152344 656.511719 405.078125 C 656.90625 405 657.308594 404.964844 657.710938 404.96875 C 658.113281 404.972656 658.515625 405.015625 658.910156 405.097656 C 659.304688 405.179688 659.6875 405.300781 660.058594 405.460938 C 660.429688 405.621094 660.78125 405.816406 661.113281 406.042969 C 661.445312 406.273438 661.75 406.535156 662.03125 406.824219 L 696.898438 441.703125 L 776.644531 361.949219 C 776.925781 361.675781 777.234375 361.429688 777.566406 361.214844 C 777.898438 361 778.246094 360.820312 778.613281 360.675781 C 778.980469 360.527344 779.359375 360.417969 779.746094 360.347656 C 780.132812 360.273438 780.523438 360.238281 780.917969 360.242188 C 781.3125 360.246094 781.703125 360.289062 782.089844 360.367188 C 782.476562 360.445312 782.851562 360.5625 783.21875 360.714844 C 783.582031 360.867188 783.925781 361.054688 784.253906 361.273438 C 784.582031 361.496094 784.886719 361.742188 785.164062 362.023438 C 785.445312 362.300781 785.695312 362.605469 785.914062 362.933594 C 786.132812 363.261719 786.320312 363.605469 786.472656 363.972656 C 786.625 364.335938 786.742188 364.710938 786.820312 365.097656 C 786.902344 365.484375 786.941406 365.875 786.945312 366.269531 C 786.949219 366.664062 786.914062 367.054688 786.839844 367.441406 C 786.769531 367.832031 786.660156 368.207031 786.511719 368.574219 C 786.367188 368.941406 786.1875 369.289062 785.972656 369.621094 C 785.757812 369.953125 785.511719 370.261719 785.238281 370.542969 L 701.203125 454.59375 C 700.632812 455.164062 699.976562 455.605469 699.230469 455.914062 C 698.484375 456.222656 697.707031 456.378906 696.898438 456.378906 Z M 696.898438 456.378906 " fill-opacity="1" fill-rule="nonzero"/></g></svg>