<svg xmlns="http://www.w3.org/2000/svg" xmlns:xlink="http://www.w3.org/1999/xlink" width="500" zoomAndPan="magnify" viewBox="0 0 375 374.999991" height="500" preserveAspectRatio="xMidYMid meet" version="1.0"><defs><clipPath id="92f56f5c09"><path d="M 206 157.972656 L 252.289062 157.972656 L 252.289062 188 L 206 188 Z M 206 157.972656 " clip-rule="nonzero"/></clipPath><clipPath id="be3298b2c0"><path d="M 122.539062 157.972656 L 252.289062 157.972656 L 252.289062 217.222656 L 122.539062 217.222656 Z M 122.539062 157.972656 " clip-rule="nonzero"/></clipPath></defs><g clip-path="url(#92f56f5c09)"><path fill="#091b5d" d="M 235.21875 157.972656 L 243.730469 172.785156 L 252.246094 187.597656 L 223.433594 187.597656 L 206.410156 157.972656 Z M 235.21875 157.972656 " fill-opacity="1" fill-rule="evenodd"/></g><g clip-path="url(#be3298b2c0)"><path fill="#f04e1b" d="M 185.289062 180.304688 L 137.089844 180.304688 L 142.414062 188.492188 C 145.085938 192.605469 149.289062 194.894531 154.179688 194.894531 L 185.292969 194.894531 L 189.613281 202.410156 L 189.742188 202.632812 L 151.605469 202.632812 L 156.925781 210.824219 C 159.597656 214.933594 163.800781 217.222656 168.691406 217.222656 L 198.128906 217.222656 L 215.152344 187.597656 L 198.128906 157.972656 L 122.589844 157.972656 L 127.90625 166.164062 C 130.582031 170.273438 134.78125 172.5625 139.671875 172.5625 L 189.742188 172.5625 L 189.613281 172.785156 L 185.292969 180.304688 Z M 235.21875 217.222656 L 243.730469 202.410156 L 252.246094 187.597656 L 223.433594 187.597656 L 206.410156 217.222656 Z M 235.21875 217.222656 " fill-opacity="1" fill-rule="evenodd"/></g></svg>