<svg xmlns="http://www.w3.org/2000/svg" xmlns:xlink="http://www.w3.org/1999/xlink" width="500" zoomAndPan="magnify" viewBox="0 0 375 374.999991" height="500" preserveAspectRatio="xMidYMid meet" version="1.0"><defs><g/><clipPath id="8f673482b0"><path d="M 141 128.445312 L 187.328125 128.445312 L 187.328125 159 L 141 159 Z M 141 128.445312 " clip-rule="nonzero"/></clipPath><clipPath id="1e4d545ef4"><path d="M 57.578125 128.445312 L 187.328125 128.445312 L 187.328125 187.695312 L 57.578125 187.695312 Z M 57.578125 128.445312 " clip-rule="nonzero"/></clipPath></defs><g clip-path="url(#8f673482b0)"><path fill="#091b5d" d="M 170.257812 128.445312 L 187.28125 158.070312 L 158.472656 158.070312 L 141.449219 128.445312 Z M 170.257812 128.445312 " fill-opacity="1" fill-rule="evenodd"/></g><g clip-path="url(#1e4d545ef4)"><path fill="#f04e1b" d="M 120.328125 150.777344 L 72.128906 150.777344 L 77.453125 158.964844 C 80.125 163.078125 84.328125 165.363281 89.21875 165.363281 L 120.332031 165.363281 L 124.652344 172.882812 L 124.78125 173.105469 L 86.644531 173.105469 L 91.960938 181.292969 C 94.636719 185.40625 98.835938 187.695312 103.726562 187.695312 L 133.164062 187.695312 L 150.1875 158.070312 L 133.164062 128.445312 L 57.625 128.445312 L 62.945312 136.632812 C 65.617188 140.746094 69.820312 143.035156 74.710938 143.035156 L 124.78125 143.035156 L 124.652344 143.257812 L 120.332031 150.777344 Z M 170.257812 187.695312 L 187.28125 158.070312 L 158.472656 158.070312 L 141.449219 187.695312 Z M 170.257812 187.695312 " fill-opacity="1" fill-rule="evenodd"/></g><g fill="#091b5d" fill-opacity="1"><g transform="translate(177.410925, 186.671925)"><g><path d="M 11.925781 0.421875 C 19.207031 0.421875 23.519531 -2.660156 23.519531 -7.867188 L 23.519531 -20.15625 L 14.558594 -20.15625 L 14.558594 -8.230469 C 14.558594 -6.496094 13.242188 -5.460938 11.480469 -5.460938 C 9.40625 -5.460938 7.867188 -6.71875 7.617188 -8.820312 L 0 -6.914062 C 0.503906 -2.296875 4.957031 0.421875 11.925781 0.421875 Z M 11.925781 0.421875 "/></g></g></g><g fill="#091b5d" fill-opacity="1"><g transform="translate(200.591571, 186.671925)"><g><path d="M 14.699219 0.421875 C 23.433594 0.421875 28.277344 -3.023438 28.277344 -9.238281 L 28.277344 -20.15625 L 19.316406 -20.15625 L 19.316406 -9.800781 C 19.316406 -7.167969 17.667969 -5.878906 14.699219 -5.878906 C 11.730469 -5.878906 10.078125 -7.167969 10.078125 -9.800781 L 10.078125 -20.15625 L 1.121094 -20.15625 L 1.121094 -9.238281 C 1.121094 -3.023438 5.964844 0.421875 14.699219 0.421875 Z M 14.699219 0.421875 "/></g></g></g><g fill="#091b5d" fill-opacity="1"><g transform="translate(228.531564, 186.671925)"><g><path d="M -0.0273438 0 L 9.210938 0 L 10.414062 -3.078125 L 19.261719 -3.078125 L 20.464844 0 L 29.734375 0 L 20.1875 -20.15625 L 9.828125 -20.15625 Z M 11.925781 -7.839844 L 14.839844 -14.867188 L 14.894531 -14.867188 L 17.75 -7.839844 Z M 11.925781 -7.839844 "/></g></g></g><g fill="#091b5d" fill-opacity="1"><g transform="translate(256.807509, 186.671925)"><g><path d="M 1.398438 0 L 9.800781 0 L 9.800781 -11.898438 L 9.828125 -11.898438 L 19.039062 0 L 29.675781 0 L 29.675781 -20.15625 L 21.277344 -20.15625 L 21.277344 -8.484375 L 21.25 -8.484375 L 12.039062 -20.15625 L 1.398438 -20.15625 Z M 1.398438 0 "/></g></g></g><g fill="#091b5d" fill-opacity="1"><g transform="translate(286.427277, 186.671925)"><g/></g></g><g fill="#091b5d" fill-opacity="1"><g transform="translate(290.850476, 186.671925)"><g><path d="M 1.398438 0 L 10.359375 0 L 10.359375 -4.480469 L 13.1875 -7 L 17.636719 0 L 28.363281 0 L 19.347656 -12.179688 L 28.363281 -20.15625 L 17.359375 -20.15625 L 10.414062 -13.804688 L 10.359375 -13.832031 L 10.359375 -20.15625 L 1.398438 -20.15625 Z M 1.398438 0 "/></g></g></g><g fill="#ffffff" fill-opacity="1"><g transform="translate(82.156252, 209.471938)"><g><path d="M 3.0625 -7.609375 L 0.0625 -7.609375 L 0.0625 -9.796875 L 8.828125 -9.796875 L 8.828125 -7.609375 L 5.84375 -7.609375 L 5.84375 0 L 3.0625 0 Z M 3.0625 -7.609375 "/></g></g></g><g fill="#ffffff" fill-opacity="1"><g transform="translate(92.791298, 209.471938)"><g><path d="M 5.265625 -2.609375 L 3.75 -2.609375 L 3.75 0 L 0.984375 0 L 0.984375 -9.796875 L 5.453125 -9.796875 C 6.347656 -9.796875 7.117188 -9.648438 7.765625 -9.359375 C 8.421875 -9.066406 8.925781 -8.644531 9.28125 -8.09375 C 9.632812 -7.550781 9.8125 -6.910156 9.8125 -6.171875 C 9.8125 -5.460938 9.644531 -4.84375 9.3125 -4.3125 C 8.976562 -3.789062 8.503906 -3.378906 7.890625 -3.078125 L 10.015625 0 L 7.046875 0 Z M 7.015625 -6.171875 C 7.015625 -6.628906 6.867188 -6.984375 6.578125 -7.234375 C 6.285156 -7.484375 5.859375 -7.609375 5.296875 -7.609375 L 3.75 -7.609375 L 3.75 -4.75 L 5.296875 -4.75 C 5.859375 -4.75 6.285156 -4.867188 6.578125 -5.109375 C 6.867188 -5.359375 7.015625 -5.710938 7.015625 -6.171875 Z M 7.015625 -6.171875 "/></g></g></g><g fill="#ffffff" fill-opacity="1"><g transform="translate(104.895526, 209.471938)"><g><path d="M 7.546875 -1.90625 L 3.40625 -1.90625 L 2.625 0 L -0.203125 0 L 4.125 -9.796875 L 6.859375 -9.796875 L 11.203125 0 L 8.3125 0 Z M 6.734375 -3.953125 L 5.46875 -7.078125 L 4.21875 -3.953125 Z M 6.734375 -3.953125 "/></g></g></g><g fill="#ffffff" fill-opacity="1"><g transform="translate(117.643394, 209.471938)"><g><path d="M 10.296875 -9.796875 L 10.296875 0 L 8.015625 0 L 3.703125 -5.21875 L 3.703125 0 L 0.984375 0 L 0.984375 -9.796875 L 3.265625 -9.796875 L 7.59375 -4.578125 L 7.59375 -9.796875 Z M 10.296875 -9.796875 "/></g></g></g><g fill="#ffffff" fill-opacity="1"><g transform="translate(130.671101, 209.471938)"><g><path d="M 4.421875 0.203125 C 3.628906 0.203125 2.859375 0.101562 2.109375 -0.09375 C 1.367188 -0.289062 0.765625 -0.550781 0.296875 -0.875 L 1.203125 -2.921875 C 1.640625 -2.628906 2.144531 -2.394531 2.71875 -2.21875 C 3.300781 -2.039062 3.875 -1.953125 4.4375 -1.953125 C 5.5 -1.953125 6.03125 -2.222656 6.03125 -2.765625 C 6.03125 -3.035156 5.878906 -3.238281 5.578125 -3.375 C 5.273438 -3.507812 4.785156 -3.65625 4.109375 -3.8125 C 3.378906 -3.96875 2.765625 -4.132812 2.265625 -4.3125 C 1.773438 -4.5 1.351562 -4.789062 1 -5.1875 C 0.644531 -5.59375 0.46875 -6.132812 0.46875 -6.8125 C 0.46875 -7.414062 0.628906 -7.957031 0.953125 -8.4375 C 1.273438 -8.914062 1.757812 -9.296875 2.40625 -9.578125 C 3.0625 -9.859375 3.859375 -10 4.796875 -10 C 5.441406 -10 6.078125 -9.925781 6.703125 -9.78125 C 7.328125 -9.632812 7.878906 -9.421875 8.359375 -9.140625 L 7.5 -7.078125 C 6.570312 -7.585938 5.664062 -7.84375 4.78125 -7.84375 C 4.238281 -7.84375 3.835938 -7.757812 3.578125 -7.59375 C 3.328125 -7.425781 3.203125 -7.210938 3.203125 -6.953125 C 3.203125 -6.691406 3.351562 -6.492188 3.65625 -6.359375 C 3.957031 -6.234375 4.4375 -6.101562 5.09375 -5.96875 C 5.84375 -5.800781 6.460938 -5.628906 6.953125 -5.453125 C 7.441406 -5.273438 7.863281 -4.984375 8.21875 -4.578125 C 8.582031 -4.179688 8.765625 -3.644531 8.765625 -2.96875 C 8.765625 -2.382812 8.597656 -1.851562 8.265625 -1.375 C 7.941406 -0.894531 7.453125 -0.507812 6.796875 -0.21875 C 6.148438 0.0625 5.359375 0.203125 4.421875 0.203125 Z M 4.421875 0.203125 "/></g></g></g><g fill="#ffffff" fill-opacity="1"><g transform="translate(141.474054, 209.471938)"><g><path d="M 5.453125 -9.796875 C 6.347656 -9.796875 7.117188 -9.648438 7.765625 -9.359375 C 8.421875 -9.066406 8.925781 -8.644531 9.28125 -8.09375 C 9.632812 -7.550781 9.8125 -6.910156 9.8125 -6.171875 C 9.8125 -5.429688 9.632812 -4.789062 9.28125 -4.25 C 8.925781 -3.707031 8.421875 -3.289062 7.765625 -3 C 7.117188 -2.707031 6.347656 -2.5625 5.453125 -2.5625 L 3.75 -2.5625 L 3.75 0 L 0.984375 0 L 0.984375 -9.796875 Z M 5.296875 -4.75 C 5.859375 -4.75 6.285156 -4.867188 6.578125 -5.109375 C 6.867188 -5.359375 7.015625 -5.710938 7.015625 -6.171875 C 7.015625 -6.628906 6.867188 -6.984375 6.578125 -7.234375 C 6.285156 -7.484375 5.859375 -7.609375 5.296875 -7.609375 L 3.75 -7.609375 L 3.75 -4.75 Z M 5.296875 -4.75 "/></g></g></g><g fill="#ffffff" fill-opacity="1"><g transform="translate(153.536303, 209.471938)"><g><path d="M 5.921875 0.203125 C 4.890625 0.203125 3.957031 -0.015625 3.125 -0.453125 C 2.300781 -0.898438 1.648438 -1.507812 1.171875 -2.28125 C 0.703125 -3.050781 0.46875 -3.925781 0.46875 -4.90625 C 0.46875 -5.875 0.703125 -6.742188 1.171875 -7.515625 C 1.648438 -8.296875 2.300781 -8.90625 3.125 -9.34375 C 3.957031 -9.78125 4.890625 -10 5.921875 -10 C 6.953125 -10 7.878906 -9.78125 8.703125 -9.34375 C 9.535156 -8.90625 10.1875 -8.296875 10.65625 -7.515625 C 11.132812 -6.742188 11.375 -5.875 11.375 -4.90625 C 11.375 -3.925781 11.132812 -3.050781 10.65625 -2.28125 C 10.1875 -1.507812 9.535156 -0.898438 8.703125 -0.453125 C 7.878906 -0.015625 6.953125 0.203125 5.921875 0.203125 Z M 5.921875 -2.09375 C 6.410156 -2.09375 6.859375 -2.207031 7.265625 -2.4375 C 7.671875 -2.675781 7.988281 -3.007812 8.21875 -3.4375 C 8.445312 -3.863281 8.5625 -4.351562 8.5625 -4.90625 C 8.5625 -5.445312 8.445312 -5.929688 8.21875 -6.359375 C 7.988281 -6.785156 7.671875 -7.113281 7.265625 -7.34375 C 6.859375 -7.582031 6.410156 -7.703125 5.921875 -7.703125 C 5.429688 -7.703125 4.984375 -7.582031 4.578125 -7.34375 C 4.171875 -7.113281 3.851562 -6.785156 3.625 -6.359375 C 3.394531 -5.929688 3.28125 -5.445312 3.28125 -4.90625 C 3.28125 -4.351562 3.394531 -3.863281 3.625 -3.4375 C 3.851562 -3.007812 4.171875 -2.675781 4.578125 -2.4375 C 4.984375 -2.207031 5.429688 -2.09375 5.921875 -2.09375 Z M 5.921875 -2.09375 "/></g></g></g><g fill="#ffffff" fill-opacity="1"><g transform="translate(167.123695, 209.471938)"><g><path d="M 5.265625 -2.609375 L 3.75 -2.609375 L 3.75 0 L 0.984375 0 L 0.984375 -9.796875 L 5.453125 -9.796875 C 6.347656 -9.796875 7.117188 -9.648438 7.765625 -9.359375 C 8.421875 -9.066406 8.925781 -8.644531 9.28125 -8.09375 C 9.632812 -7.550781 9.8125 -6.910156 9.8125 -6.171875 C 9.8125 -5.460938 9.644531 -4.84375 9.3125 -4.3125 C 8.976562 -3.789062 8.503906 -3.378906 7.890625 -3.078125 L 10.015625 0 L 7.046875 0 Z M 7.015625 -6.171875 C 7.015625 -6.628906 6.867188 -6.984375 6.578125 -7.234375 C 6.285156 -7.484375 5.859375 -7.609375 5.296875 -7.609375 L 3.75 -7.609375 L 3.75 -4.75 L 5.296875 -4.75 C 5.859375 -4.75 6.285156 -4.867188 6.578125 -5.109375 C 6.867188 -5.359375 7.015625 -5.710938 7.015625 -6.171875 Z M 7.015625 -6.171875 "/></g></g></g><g fill="#ffffff" fill-opacity="1"><g transform="translate(179.227927, 209.471938)"><g><path d="M 3.0625 -7.609375 L 0.0625 -7.609375 L 0.0625 -9.796875 L 8.828125 -9.796875 L 8.828125 -7.609375 L 5.84375 -7.609375 L 5.84375 0 L 3.0625 0 Z M 3.0625 -7.609375 "/></g></g></g><g fill="#ffffff" fill-opacity="1"><g transform="translate(189.862978, 209.471938)"><g><path d="M 8.84375 -2.140625 L 8.84375 0 L 0.984375 0 L 0.984375 -9.796875 L 8.671875 -9.796875 L 8.671875 -7.65625 L 3.71875 -7.65625 L 3.71875 -6 L 8.078125 -6 L 8.078125 -3.9375 L 3.71875 -3.9375 L 3.71875 -2.140625 Z M 8.84375 -2.140625 "/></g></g></g><g fill="#ffffff" fill-opacity="1"><g transform="translate(201.015737, 209.471938)"><g><path d="M 4.421875 0.203125 C 3.628906 0.203125 2.859375 0.101562 2.109375 -0.09375 C 1.367188 -0.289062 0.765625 -0.550781 0.296875 -0.875 L 1.203125 -2.921875 C 1.640625 -2.628906 2.144531 -2.394531 2.71875 -2.21875 C 3.300781 -2.039062 3.875 -1.953125 4.4375 -1.953125 C 5.5 -1.953125 6.03125 -2.222656 6.03125 -2.765625 C 6.03125 -3.035156 5.878906 -3.238281 5.578125 -3.375 C 5.273438 -3.507812 4.785156 -3.65625 4.109375 -3.8125 C 3.378906 -3.96875 2.765625 -4.132812 2.265625 -4.3125 C 1.773438 -4.5 1.351562 -4.789062 1 -5.1875 C 0.644531 -5.59375 0.46875 -6.132812 0.46875 -6.8125 C 0.46875 -7.414062 0.628906 -7.957031 0.953125 -8.4375 C 1.273438 -8.914062 1.757812 -9.296875 2.40625 -9.578125 C 3.0625 -9.859375 3.859375 -10 4.796875 -10 C 5.441406 -10 6.078125 -9.925781 6.703125 -9.78125 C 7.328125 -9.632812 7.878906 -9.421875 8.359375 -9.140625 L 7.5 -7.078125 C 6.570312 -7.585938 5.664062 -7.84375 4.78125 -7.84375 C 4.238281 -7.84375 3.835938 -7.757812 3.578125 -7.59375 C 3.328125 -7.425781 3.203125 -7.210938 3.203125 -6.953125 C 3.203125 -6.691406 3.351562 -6.492188 3.65625 -6.359375 C 3.957031 -6.234375 4.4375 -6.101562 5.09375 -5.96875 C 5.84375 -5.800781 6.460938 -5.628906 6.953125 -5.453125 C 7.441406 -5.273438 7.863281 -4.984375 8.21875 -4.578125 C 8.582031 -4.179688 8.765625 -3.644531 8.765625 -2.96875 C 8.765625 -2.382812 8.597656 -1.851562 8.265625 -1.375 C 7.941406 -0.894531 7.453125 -0.507812 6.796875 -0.21875 C 6.148438 0.0625 5.359375 0.203125 4.421875 0.203125 Z M 4.421875 0.203125 "/></g></g></g><g fill="#ffffff" fill-opacity="1"><g transform="translate(211.818696, 209.471938)"><g/></g></g><g fill="#ffffff" fill-opacity="1"><g transform="translate(217.640431, 209.471938)"><g><path d="M 0.984375 -9.796875 L 3.75 -9.796875 L 3.75 -2.203125 L 8.421875 -2.203125 L 8.421875 0 L 0.984375 0 Z M 0.984375 -9.796875 "/></g></g></g><g fill="#ffffff" fill-opacity="1"><g transform="translate(227.92567, 209.471938)"><g><path d="M 0.984375 -9.796875 L 3.75 -9.796875 L 3.75 0 L 0.984375 0 Z M 0.984375 -9.796875 "/></g></g></g><g fill="#ffffff" fill-opacity="1"><g transform="translate(234.419025, 209.471938)"><g><path d="M 7.546875 -5.109375 L 10 -5.109375 L 10 -1.046875 C 9.4375 -0.648438 8.789062 -0.34375 8.0625 -0.125 C 7.332031 0.09375 6.601562 0.203125 5.875 0.203125 C 4.851562 0.203125 3.929688 -0.015625 3.109375 -0.453125 C 2.285156 -0.890625 1.640625 -1.492188 1.171875 -2.265625 C 0.703125 -3.046875 0.46875 -3.925781 0.46875 -4.90625 C 0.46875 -5.882812 0.703125 -6.757812 1.171875 -7.53125 C 1.640625 -8.300781 2.289062 -8.90625 3.125 -9.34375 C 3.957031 -9.78125 4.894531 -10 5.9375 -10 C 6.851562 -10 7.671875 -9.84375 8.390625 -9.53125 C 9.117188 -9.226562 9.726562 -8.785156 10.21875 -8.203125 L 8.453125 -6.609375 C 7.796875 -7.335938 7.003906 -7.703125 6.078125 -7.703125 C 5.234375 -7.703125 4.554688 -7.445312 4.046875 -6.9375 C 3.535156 -6.425781 3.28125 -5.75 3.28125 -4.90625 C 3.28125 -4.363281 3.394531 -3.878906 3.625 -3.453125 C 3.851562 -3.023438 4.175781 -2.691406 4.59375 -2.453125 C 5.019531 -2.210938 5.503906 -2.09375 6.046875 -2.09375 C 6.578125 -2.09375 7.078125 -2.203125 7.546875 -2.421875 Z M 7.546875 -5.109375 "/></g></g></g><g fill="#ffffff" fill-opacity="1"><g transform="translate(246.943014, 209.471938)"><g><path d="M 8.84375 -2.140625 L 8.84375 0 L 0.984375 0 L 0.984375 -9.796875 L 8.671875 -9.796875 L 8.671875 -7.65625 L 3.71875 -7.65625 L 3.71875 -6 L 8.078125 -6 L 8.078125 -3.9375 L 3.71875 -3.9375 L 3.71875 -2.140625 Z M 8.84375 -2.140625 "/></g></g></g><g fill="#ffffff" fill-opacity="1"><g transform="translate(258.095773, 209.471938)"><g><path d="M 5.265625 -2.609375 L 3.75 -2.609375 L 3.75 0 L 0.984375 0 L 0.984375 -9.796875 L 5.453125 -9.796875 C 6.347656 -9.796875 7.117188 -9.648438 7.765625 -9.359375 C 8.421875 -9.066406 8.925781 -8.644531 9.28125 -8.09375 C 9.632812 -7.550781 9.8125 -6.910156 9.8125 -6.171875 C 9.8125 -5.460938 9.644531 -4.84375 9.3125 -4.3125 C 8.976562 -3.789062 8.503906 -3.378906 7.890625 -3.078125 L 10.015625 0 L 7.046875 0 Z M 7.015625 -6.171875 C 7.015625 -6.628906 6.867188 -6.984375 6.578125 -7.234375 C 6.285156 -7.484375 5.859375 -7.609375 5.296875 -7.609375 L 3.75 -7.609375 L 3.75 -4.75 L 5.296875 -4.75 C 5.859375 -4.75 6.285156 -4.867188 6.578125 -5.109375 C 6.867188 -5.359375 7.015625 -5.710938 7.015625 -6.171875 Z M 7.015625 -6.171875 "/></g></g></g><g fill="#ffffff" fill-opacity="1"><g transform="translate(270.200005, 209.471938)"><g><path d="M 5.921875 0.203125 C 4.890625 0.203125 3.957031 -0.015625 3.125 -0.453125 C 2.300781 -0.898438 1.648438 -1.507812 1.171875 -2.28125 C 0.703125 -3.050781 0.46875 -3.925781 0.46875 -4.90625 C 0.46875 -5.875 0.703125 -6.742188 1.171875 -7.515625 C 1.648438 -8.296875 2.300781 -8.90625 3.125 -9.34375 C 3.957031 -9.78125 4.890625 -10 5.921875 -10 C 6.953125 -10 7.878906 -9.78125 8.703125 -9.34375 C 9.535156 -8.90625 10.1875 -8.296875 10.65625 -7.515625 C 11.132812 -6.742188 11.375 -5.875 11.375 -4.90625 C 11.375 -3.925781 11.132812 -3.050781 10.65625 -2.28125 C 10.1875 -1.507812 9.535156 -0.898438 8.703125 -0.453125 C 7.878906 -0.015625 6.953125 0.203125 5.921875 0.203125 Z M 5.921875 -2.09375 C 6.410156 -2.09375 6.859375 -2.207031 7.265625 -2.4375 C 7.671875 -2.675781 7.988281 -3.007812 8.21875 -3.4375 C 8.445312 -3.863281 8.5625 -4.351562 8.5625 -4.90625 C 8.5625 -5.445312 8.445312 -5.929688 8.21875 -6.359375 C 7.988281 -6.785156 7.671875 -7.113281 7.265625 -7.34375 C 6.859375 -7.582031 6.410156 -7.703125 5.921875 -7.703125 C 5.429688 -7.703125 4.984375 -7.582031 4.578125 -7.34375 C 4.171875 -7.113281 3.851562 -6.785156 3.625 -6.359375 C 3.394531 -5.929688 3.28125 -5.445312 3.28125 -4.90625 C 3.28125 -4.351562 3.394531 -3.863281 3.625 -3.4375 C 3.851562 -3.007812 4.171875 -2.675781 4.578125 -2.4375 C 4.984375 -2.207031 5.429688 -2.09375 5.921875 -2.09375 Z M 5.921875 -2.09375 "/></g></g></g><g fill="#ffffff" fill-opacity="1"><g transform="translate(283.787403, 209.471938)"><g><path d="M 4.421875 0.203125 C 3.628906 0.203125 2.859375 0.101562 2.109375 -0.09375 C 1.367188 -0.289062 0.765625 -0.550781 0.296875 -0.875 L 1.203125 -2.921875 C 1.640625 -2.628906 2.144531 -2.394531 2.71875 -2.21875 C 3.300781 -2.039062 3.875 -1.953125 4.4375 -1.953125 C 5.5 -1.953125 6.03125 -2.222656 6.03125 -2.765625 C 6.03125 -3.035156 5.878906 -3.238281 5.578125 -3.375 C 5.273438 -3.507812 4.785156 -3.65625 4.109375 -3.8125 C 3.378906 -3.96875 2.765625 -4.132812 2.265625 -4.3125 C 1.773438 -4.5 1.351562 -4.789062 1 -5.1875 C 0.644531 -5.59375 0.46875 -6.132812 0.46875 -6.8125 C 0.46875 -7.414062 0.628906 -7.957031 0.953125 -8.4375 C 1.273438 -8.914062 1.757812 -9.296875 2.40625 -9.578125 C 3.0625 -9.859375 3.859375 -10 4.796875 -10 C 5.441406 -10 6.078125 -9.925781 6.703125 -9.78125 C 7.328125 -9.632812 7.878906 -9.421875 8.359375 -9.140625 L 7.5 -7.078125 C 6.570312 -7.585938 5.664062 -7.84375 4.78125 -7.84375 C 4.238281 -7.84375 3.835938 -7.757812 3.578125 -7.59375 C 3.328125 -7.425781 3.203125 -7.210938 3.203125 -6.953125 C 3.203125 -6.691406 3.351562 -6.492188 3.65625 -6.359375 C 3.957031 -6.234375 4.4375 -6.101562 5.09375 -5.96875 C 5.84375 -5.800781 6.460938 -5.628906 6.953125 -5.453125 C 7.441406 -5.273438 7.863281 -4.984375 8.21875 -4.578125 C 8.582031 -4.179688 8.765625 -3.644531 8.765625 -2.96875 C 8.765625 -2.382812 8.597656 -1.851562 8.265625 -1.375 C 7.941406 -0.894531 7.453125 -0.507812 6.796875 -0.21875 C 6.148438 0.0625 5.359375 0.203125 4.421875 0.203125 Z M 4.421875 0.203125 "/></g></g></g></svg>