<svg xmlns="http://www.w3.org/2000/svg" xmlns:xlink="http://www.w3.org/1999/xlink" width="1920" zoomAndPan="magnify" viewBox="0 0 1440 809.999993" height="1080" preserveAspectRatio="xMidYMid meet" version="1.0"><defs><clipPath id="b5ba16d4f3"><path d="M 604.5 289.5 L 835.5 289.5 L 835.5 520.5 L 604.5 520.5 Z M 604.5 289.5 " clip-rule="nonzero"/></clipPath></defs><g clip-path="url(#b5ba16d4f3)"><path fill="#ff0000" d="M 720 289.5 C 656.210938 289.5 604.5 341.210938 604.5 405 C 604.5 468.789062 656.210938 520.5 720 520.5 C 783.789062 520.5 835.5 468.789062 835.5 405 C 835.5 341.210938 783.789062 289.5 720 289.5 Z M 720 500.449219 C 667.285156 500.449219 624.550781 457.714844 624.550781 405 C 624.550781 352.285156 667.285156 309.550781 720 309.550781 C 772.714844 309.550781 815.449219 352.285156 815.449219 405 C 815.449219 457.714844 772.714844 500.449219 720 500.449219 Z M 720 500.449219 " fill-opacity="1" fill-rule="nonzero"/></g><path fill="#ff0000" d="M 730.082031 405 L 758.621094 376.460938 C 761.933594 373.152344 762.359375 368.210938 759.574219 365.425781 C 756.792969 362.640625 751.851562 363.070312 748.539062 366.378906 L 720.003906 394.917969 L 691.464844 366.378906 C 688.152344 363.066406 683.210938 362.640625 680.425781 365.425781 C 677.644531 368.207031 678.070312 373.148438 681.382812 376.460938 L 709.917969 405 L 681.382812 433.535156 C 678.070312 436.847656 677.640625 441.789062 680.425781 444.574219 C 683.210938 447.355469 688.152344 446.929688 691.464844 443.617188 L 720 415.082031 L 748.539062 443.617188 C 751.847656 446.929688 756.789062 447.359375 759.574219 444.574219 C 762.359375 441.789062 761.933594 436.847656 758.621094 433.535156 Z M 730.082031 405 " fill-opacity="1" fill-rule="nonzero"/></svg>